<svg xmlns="http://www.w3.org/2000/svg" xmlns:xlink="http://www.w3.org/1999/xlink" width="24" zoomAndPan="magnify" viewBox="0 0 384 383.999986" height="24" preserveAspectRatio="xMidYMid meet" version="1.0"><path fill="#ffffff" d="M 384 192 C 384 195.140625 383.921875 198.28125 383.769531 201.421875 C 383.613281 204.558594 383.382812 207.691406 383.074219 210.820312 C 382.765625 213.945312 382.382812 217.0625 381.921875 220.171875 C 381.460938 223.28125 380.921875 226.375 380.308594 229.457031 C 379.699219 232.539062 379.007812 235.605469 378.246094 238.652344 C 377.480469 241.699219 376.644531 244.726562 375.730469 247.734375 C 374.820312 250.742188 373.835938 253.722656 372.777344 256.683594 C 371.71875 259.640625 370.585938 262.570312 369.382812 265.476562 C 368.183594 268.378906 366.910156 271.25 365.566406 274.089844 C 364.222656 276.929688 362.808594 279.738281 361.328125 282.507812 C 359.847656 285.28125 358.300781 288.011719 356.683594 290.707031 C 355.066406 293.402344 353.386719 296.058594 351.640625 298.667969 C 349.894531 301.28125 348.085938 303.851562 346.214844 306.375 C 344.34375 308.898438 342.410156 311.375 340.417969 313.804688 C 338.425781 316.230469 336.371094 318.609375 334.261719 320.9375 C 332.152344 323.265625 329.984375 325.542969 327.765625 327.765625 C 325.542969 329.988281 323.265625 332.152344 320.9375 334.261719 C 318.609375 336.371094 316.230469 338.425781 313.804688 340.417969 C 311.375 342.410156 308.898438 344.34375 306.375 346.214844 C 303.851562 348.085938 301.28125 349.894531 298.667969 351.640625 C 296.054688 353.386719 293.402344 355.070312 290.707031 356.683594 C 288.011719 358.300781 285.277344 359.847656 282.507812 361.328125 C 279.738281 362.808594 276.929688 364.222656 274.089844 365.566406 C 271.25 366.910156 268.378906 368.183594 265.476562 369.386719 C 262.570312 370.585938 259.640625 371.71875 256.683594 372.777344 C 253.722656 373.835938 250.742188 374.820312 247.734375 375.734375 C 244.726562 376.644531 241.699219 377.484375 238.652344 378.246094 C 235.605469 379.007812 232.539062 379.699219 229.457031 380.3125 C 226.375 380.921875 223.28125 381.460938 220.171875 381.921875 C 217.0625 382.382812 213.945312 382.765625 210.820312 383.074219 C 207.691406 383.382812 204.558594 383.613281 201.421875 383.769531 C 198.28125 383.921875 195.140625 384 192 384 C 188.859375 384 185.71875 383.921875 182.578125 383.769531 C 179.441406 383.613281 176.308594 383.382812 173.179688 383.074219 C 170.054688 382.765625 166.9375 382.382812 163.828125 381.921875 C 160.71875 381.460938 157.625 380.921875 154.542969 380.3125 C 151.460938 379.699219 148.394531 379.007812 145.347656 378.246094 C 142.300781 377.484375 139.273438 376.644531 136.265625 375.734375 C 133.257812 374.820312 130.277344 373.835938 127.316406 372.777344 C 124.359375 371.71875 121.425781 370.585938 118.523438 369.386719 C 115.621094 368.183594 112.75 366.910156 109.910156 365.566406 C 107.070312 364.222656 104.261719 362.808594 101.492188 361.328125 C 98.71875 359.847656 95.988281 358.300781 93.292969 356.683594 C 90.597656 355.070312 87.941406 353.386719 85.332031 351.640625 C 82.71875 349.894531 80.148438 348.085938 77.625 346.214844 C 75.101562 344.34375 72.625 342.410156 70.195312 340.417969 C 67.765625 338.425781 65.390625 336.371094 63.0625 334.261719 C 60.734375 332.152344 58.457031 329.988281 56.234375 327.765625 C 54.011719 325.542969 51.847656 323.265625 49.738281 320.9375 C 47.628906 318.609375 45.574219 316.230469 43.582031 313.804688 C 41.589844 311.375 39.65625 308.898438 37.785156 306.375 C 35.914062 303.851562 34.101562 301.28125 32.359375 298.667969 C 30.613281 296.058594 28.929688 293.402344 27.316406 290.707031 C 25.699219 288.011719 24.152344 285.28125 22.671875 282.507812 C 21.191406 279.738281 19.777344 276.929688 18.433594 274.089844 C 17.089844 271.25 15.816406 268.378906 14.613281 265.476562 C 13.414062 262.570312 12.28125 259.640625 11.222656 256.683594 C 10.164062 253.722656 9.179688 250.742188 8.265625 247.734375 C 7.355469 244.726562 6.515625 241.699219 5.753906 238.652344 C 4.992188 235.605469 4.300781 232.539062 3.6875 229.457031 C 3.074219 226.375 2.539062 223.28125 2.078125 220.171875 C 1.617188 217.0625 1.234375 213.945312 0.925781 210.820312 C 0.617188 207.691406 0.386719 204.558594 0.230469 201.421875 C 0.078125 198.28125 0 195.140625 0 192 C 0 188.859375 0.078125 185.71875 0.230469 182.578125 C 0.386719 179.441406 0.617188 176.308594 0.925781 173.179688 C 1.234375 170.054688 1.617188 166.9375 2.078125 163.828125 C 2.539062 160.71875 3.074219 157.625 3.6875 154.542969 C 4.300781 151.460938 4.992188 148.394531 5.753906 145.347656 C 6.515625 142.300781 7.355469 139.273438 8.265625 136.265625 C 9.179688 133.257812 10.164062 130.277344 11.222656 127.316406 C 12.28125 124.359375 13.414062 121.429688 14.613281 118.523438 C 15.816406 115.621094 17.089844 112.75 18.433594 109.910156 C 19.777344 107.070312 21.191406 104.261719 22.671875 101.492188 C 24.152344 98.71875 25.699219 95.988281 27.316406 93.292969 C 28.929688 90.597656 30.613281 87.941406 32.359375 85.332031 C 34.101562 82.71875 35.914062 80.148438 37.785156 77.625 C 39.65625 75.101562 41.589844 72.625 43.582031 70.195312 C 45.574219 67.765625 47.628906 65.390625 49.738281 63.0625 C 51.847656 60.730469 54.011719 58.457031 56.234375 56.234375 C 58.457031 54.011719 60.734375 51.847656 63.0625 49.738281 C 65.390625 47.628906 67.765625 45.574219 70.195312 43.582031 C 72.625 41.589844 75.101562 39.65625 77.625 37.785156 C 80.148438 35.914062 82.71875 34.105469 85.332031 32.359375 C 87.941406 30.613281 90.597656 28.929688 93.292969 27.316406 C 95.988281 25.699219 98.71875 24.152344 101.492188 22.671875 C 104.261719 21.191406 107.070312 19.777344 109.910156 18.433594 C 112.75 17.089844 115.621094 15.816406 118.523438 14.613281 C 121.425781 13.414062 124.359375 12.28125 127.316406 11.222656 C 130.277344 10.164062 133.257812 9.179688 136.265625 8.265625 C 139.273438 7.355469 142.300781 6.515625 145.347656 5.753906 C 148.394531 4.992188 151.460938 4.300781 154.542969 3.6875 C 157.625 3.078125 160.71875 2.539062 163.828125 2.078125 C 166.9375 1.617188 170.054688 1.234375 173.179688 0.925781 C 176.308594 0.617188 179.441406 0.386719 182.578125 0.230469 C 185.71875 0.078125 188.859375 0 192 0 C 195.140625 0 198.28125 0.078125 201.421875 0.230469 C 204.558594 0.386719 207.691406 0.617188 210.820312 0.925781 C 213.945312 1.234375 217.0625 1.617188 220.171875 2.078125 C 223.28125 2.539062 226.375 3.078125 229.457031 3.6875 C 232.539062 4.300781 235.605469 4.992188 238.652344 5.753906 C 241.699219 6.515625 244.726562 7.355469 247.734375 8.265625 C 250.742188 9.179688 253.722656 10.164062 256.683594 11.222656 C 259.640625 12.28125 262.570312 13.414062 265.476562 14.613281 C 268.378906 15.816406 271.25 17.089844 274.089844 18.433594 C 276.929688 19.777344 279.738281 21.191406 282.507812 22.671875 C 285.277344 24.152344 288.011719 25.699219 290.707031 27.316406 C 293.402344 28.929688 296.054688 30.613281 298.667969 32.359375 C 301.28125 34.105469 303.851562 35.914062 306.375 37.785156 C 308.898438 39.65625 311.375 41.589844 313.804688 43.582031 C 316.230469 45.574219 318.609375 47.628906 320.9375 49.738281 C 323.265625 51.847656 325.542969 54.011719 327.765625 56.234375 C 329.984375 58.457031 332.152344 60.730469 334.261719 63.0625 C 336.371094 65.390625 338.425781 67.765625 340.417969 70.195312 C 342.410156 72.625 344.34375 75.101562 346.214844 77.625 C 348.085938 80.148438 349.894531 82.71875 351.640625 85.332031 C 353.386719 87.941406 355.066406 90.597656 356.683594 93.292969 C 358.300781 95.988281 359.847656 98.71875 361.328125 101.492188 C 362.808594 104.261719 364.222656 107.070312 365.566406 109.910156 C 366.910156 112.75 368.183594 115.621094 369.382812 118.523438 C 370.585938 121.429688 371.71875 124.359375 372.777344 127.316406 C 373.835938 130.277344 374.820312 133.257812 375.730469 136.265625 C 376.644531 139.273438 377.480469 142.300781 378.246094 145.347656 C 379.007812 148.394531 379.699219 151.460938 380.3125 154.542969 C 380.921875 157.625 381.460938 160.71875 381.921875 163.828125 C 382.382812 166.9375 382.765625 170.054688 383.074219 173.179688 C 383.382812 176.308594 383.613281 179.441406 383.769531 182.578125 C 383.921875 185.71875 384 188.859375 384 192 Z M 384 192 " fill-opacity="1" fill-rule="nonzero"/><path fill="#000000" d="M 275.9375 342.847656 C 278.179688 348.832031 275.1875 355.5625 269.210938 358.554688 C 241.5625 369.773438 213.167969 373.511719 179.539062 373.511719 C 86.882812 373.511719 8.417969 313.679688 8.417969 217.945312 C 8.417969 115.480469 89.125 26.476562 214.660156 26.476562 C 312.550781 26.476562 379.058594 87.808594 379.058594 170.824219 C 379.058594 245.617188 331.980469 288.996094 278.925781 288.996094 C 256.507812 288.996094 235.585938 275.535156 237.078125 244.871094 L 234.835938 244.871094 C 215.410156 274.039062 189.253906 288.996094 155.628906 288.996094 C 122.75 288.996094 94.355469 265.8125 94.355469 226.171875 C 94.355469 164.84375 149.652344 108 228.113281 108 C 241.5625 108 254.265625 109.496094 265.476562 111.742188 C 278.179688 114.730469 286.398438 126.699219 284.15625 140.160156 L 269.210938 208.96875 C 260.992188 247.113281 267.714844 264.316406 286.398438 264.316406 C 315.539062 265.0625 347.671875 230.660156 347.671875 173.070312 C 347.671875 101.269531 298.355469 48.914062 210.925781 48.914062 C 119.011719 48.914062 42.046875 113.238281 42.046875 214.207031 C 42.046875 297.222656 103.320312 348.832031 187.011719 348.832031 C 214.660156 348.832031 240.816406 344.34375 261.738281 336.117188 C 266.222656 333.871094 272.949219 336.863281 275.9375 342.847656 Z M 243.804688 162.597656 C 246.792969 148.386719 236.332031 134.179688 221.386719 134.179688 C 221.386719 134.179688 221.386719 134.179688 220.640625 134.179688 C 171.320312 134.179688 130.96875 175.3125 130.96875 223.929688 C 130.96875 245.617188 143.671875 262.070312 168.332031 262.070312 C 201.210938 262.070312 231.101562 225.425781 237.078125 194.757812 Z M 243.804688 162.597656 " fill-opacity="1" fill-rule="nonzero"/><path fill="#000000" d="M 268.464844 344.34375 C 271.453125 353.316406 247.539062 357.058594 240.816406 358.554688 C 229.605469 361.542969 217.652344 363.039062 205.695312 363.789062 C 184.773438 365.285156 163.847656 365.285156 143.671875 361.542969 C 110.046875 355.5625 77.167969 339.855469 53.253906 314.425781 C 4.683594 263.566406 6.925781 181.296875 42.792969 122.960938 C 82.398438 58.636719 157.871094 28.722656 231.101562 33.957031 C 266.222656 36.199219 301.34375 48.167969 328.242188 72.101562 C 352.902344 94.539062 368.59375 125.203125 370.835938 158.113281 C 373.828125 198.5 361.871094 242.625 326.75 266.558594 C 299.101562 284.507812 243.058594 292.738281 244.550781 244.871094 C 244.550781 241.128906 240.816406 237.390625 237.078125 237.390625 C 230.355469 237.390625 228.859375 241.128906 225.125 245.617188 C 220.640625 251.601562 214.660156 257.585938 208.683594 262.820312 C 197.476562 271.792969 184.023438 277.777344 169.828125 280.023438 C 143.671875 283.761719 116.023438 274.785156 105.5625 247.863281 C 96.59375 223.929688 104.066406 194.757812 116.773438 173.816406 C 130.96875 150.632812 153.386719 133.429688 178.792969 123.707031 C 192.992188 118.472656 207.1875 116.226562 222.132812 115.480469 C 230.355469 115.480469 239.320312 115.480469 247.539062 116.226562 C 255.011719 116.976562 266.222656 116.976562 272.199219 122.960938 C 278.179688 128.941406 276.683594 136.421875 275.1875 143.902344 C 273.695312 152.128906 271.453125 160.355469 269.957031 168.582031 C 266.96875 184.289062 262.484375 199.246094 260.242188 214.953125 C 257.253906 232.902344 255.011719 262.070312 277.429688 269.550781 C 296.113281 275.535156 317.035156 263.566406 328.992188 250.105469 C 347.671875 229.164062 355.144531 199.996094 355.144531 172.320312 C 355.144531 123.707031 331.234375 78.832031 287.144531 57.144531 C 240.066406 33.957031 179.539062 36.199219 131.714844 57.144531 C 85.386719 78.085938 50.265625 119.96875 39.058594 170.078125 C 27.101562 220.9375 36.066406 277.03125 74.179688 314.425781 C 114.53125 354.066406 174.308594 361.542969 228.113281 352.570312 C 235.585938 351.074219 243.058594 349.578125 250.53125 347.335938 C 255.761719 345.839844 266.222656 339.105469 269.210938 345.839844 C 272.949219 354.8125 285.652344 347.335938 281.914062 338.359375 C 276.683594 325.644531 263.234375 327.140625 253.519531 330.878906 C 237.078125 336.863281 219.890625 339.855469 202.707031 340.601562 C 175.058594 342.847656 145.914062 339.855469 120.507812 328.636719 C 72.683594 306.945312 47.277344 260.574219 48.773438 208.96875 C 50.265625 155.867188 76.417969 106.503906 122.75 79.582031 C 167.585938 53.402344 228.859375 47.417969 275.9375 69.109375 C 322.265625 90.800781 343.9375 138.664062 338.707031 188.777344 C 336.464844 212.710938 325.253906 240.382812 302.835938 252.347656 C 296.859375 256.089844 286.398438 259.082031 279.671875 255.339844 C 271.453125 250.851562 272.199219 237.390625 272.949219 229.164062 C 275.1875 198.5 287.144531 169.332031 290.882812 139.414062 C 292.375 126.699219 286.398438 114.730469 275.9375 108 C 263.234375 100.523438 244.550781 100.523438 231.101562 100.523438 C 202.707031 99.773438 174.308594 106.503906 150.398438 120.714844 C 108.550781 145.398438 76.421875 197.003906 89.125 246.367188 C 103.320312 300.964844 171.320312 308.441406 212.417969 278.527344 C 223.628906 270.300781 233.34375 259.828125 240.816406 248.609375 C 238.574219 250.105469 236.332031 250.851562 234.089844 252.347656 C 234.835938 252.347656 235.585938 252.347656 236.332031 252.347656 C 234.089844 250.105469 231.101562 247.113281 228.859375 244.871094 C 228.113281 264.316406 236.332031 283.011719 255.011719 291.242188 C 271.453125 298.71875 290.882812 297.222656 307.320312 291.988281 C 344.683594 280.769531 370.835938 249.355469 380.550781 212.710938 C 391.011719 173.816406 386.53125 129.691406 365.605469 94.539062 C 345.429688 60.882812 312.550781 38.445312 275.1875 27.226562 C 194.484375 3.292969 96.597656 28.722656 43.539062 95.285156 C -5.03125 156.617188 -16.988281 250.105469 33.078125 314.425781 C 56.992188 345.839844 92.859375 366.78125 131.714844 375.007812 C 154.132812 380.242188 177.300781 380.992188 199.714844 379.496094 C 212.417969 378.746094 225.125 377.25 237.828125 374.257812 C 249.78125 372.015625 263.234375 369.023438 274.441406 363.039062 C 282.660156 358.554688 286.398438 348.832031 283.410156 339.855469 C 279.671875 331.628906 265.476562 335.367188 268.464844 344.34375 Z M 268.464844 344.34375 " fill-opacity="1" fill-rule="nonzero"/><path fill="#000000" d="M 251.277344 164.84375 C 254.265625 149.882812 246.792969 134.179688 231.847656 128.941406 C 218.398438 123.707031 200.464844 128.195312 187.761719 133.429688 C 160.113281 143.902344 137.695312 167.085938 128.726562 196.253906 C 120.507812 222.433594 122.75 258.332031 153.386719 268.054688 C 184.773438 277.777344 213.914062 255.339844 230.355469 230.660156 C 243.058594 209.71875 246.046875 187.28125 251.277344 164.84375 C 253.519531 155.121094 238.574219 151.378906 237.078125 161.101562 C 234.089844 173.816406 232.597656 187.28125 228.113281 199.996094 C 220.640625 222.433594 201.957031 247.113281 178.046875 253.097656 C 167.585938 255.339844 155.628906 254.59375 147.410156 247.113281 C 139.1875 239.632812 138.441406 227.667969 139.1875 216.449219 C 141.429688 192.515625 154.132812 170.078125 173.5625 156.617188 C 184.773438 148.386719 197.476562 143.152344 210.925781 141.65625 C 216.902344 140.910156 223.628906 140.160156 229.605469 143.902344 C 234.835938 147.640625 237.828125 154.371094 237.078125 160.355469 C 234.835938 170.078125 249.035156 174.566406 251.277344 164.84375 Z M 251.277344 164.84375 " fill-opacity="1" fill-rule="nonzero"/></svg>
