<svg xmlns="http://www.w3.org/2000/svg" xmlns:xlink="http://www.w3.org/1999/xlink" width="512" zoomAndPan="magnify" viewBox="0 0 384 383.999986" height="512" preserveAspectRatio="xMidYMid meet" version="1.0"><path fill="#ff0000" d="M 193.238281 357.566406 C 191.210938 357.566406 189.636719 356.894531 185.140625 355.09375 C 132.722656 331.699219 73.335938 325.847656 8.097656 337.320312 C 6.296875 337.546875 4.273438 337.097656 2.699219 335.746094 C 1.125 334.398438 0.226562 332.597656 0.226562 330.574219 L 0 78.621094 C 0 76.824219 0.675781 75.023438 2.023438 73.898438 C 3.375 72.546875 4.949219 71.875 6.75 71.875 L 38.242188 71.875 C 42.066406 71.875 44.992188 74.796875 44.992188 78.621094 C 44.992188 82.222656 42.066406 85.371094 38.242188 85.371094 L 13.496094 85.371094 L 13.722656 322.699219 C 78.507812 312.578125 137.898438 319.324219 190.539062 342.71875 C 191.4375 342.945312 192.335938 343.394531 193.238281 343.84375 C 193.914062 343.394531 194.8125 342.945312 195.710938 342.71875 C 247 319.324219 305.714844 312.578125 370.503906 322.699219 L 370.277344 85.371094 L 345.53125 85.371094 C 341.933594 85.371094 338.785156 82.222656 338.785156 78.621094 C 338.785156 74.796875 341.933594 71.875 345.53125 71.875 L 377.027344 71.875 C 380.851562 71.875 383.773438 74.796875 383.773438 78.621094 L 384 330.574219 C 384 332.597656 383.101562 334.398438 381.527344 335.746094 C 379.949219 337.097656 377.925781 337.546875 375.902344 337.320312 C 310.890625 325.847656 252.175781 331.699219 201.109375 354.867188 C 196.835938 356.894531 195.261719 357.566406 193.238281 357.566406 Z M 193.238281 357.566406 " fill-opacity="1" fill-rule="evenodd"/><path fill="#ff0000" d="M 191.886719 357.566406 C 190.085938 357.566406 188.511719 356.894531 187.164062 355.769531 C 187.164062 355.542969 187.164062 355.542969 186.9375 355.542969 C 133.625 298.179688 40.042969 309.203125 39.140625 309.203125 C 37.117188 309.425781 35.316406 308.976562 33.742188 307.628906 C 32.394531 306.277344 31.492188 304.476562 31.492188 302.453125 L 31.492188 59.5 C 31.492188 56.578125 33.519531 53.878906 36.21875 52.976562 C 39.816406 51.851562 123.5 26.433594 191.886719 69.398438 C 260.5 26.433594 344.183594 51.851562 347.78125 52.976562 C 350.480469 53.878906 352.507812 56.578125 352.507812 59.5 L 352.507812 302.453125 C 352.507812 304.476562 351.605469 306.277344 350.257812 307.628906 C 348.683594 308.976562 346.882812 309.425781 344.859375 309.203125 C 343.957031 309.203125 250.152344 298.402344 196.835938 355.542969 C 196.835938 355.769531 196.613281 355.769531 196.613281 355.769531 C 195.488281 356.894531 193.6875 357.566406 191.886719 357.566406 Z M 198.636719 81.097656 L 198.636719 335.070312 C 247.902344 293.457031 316.289062 293.679688 339.007812 295.253906 L 339.007812 64.675781 C 320.5625 59.949219 253.074219 46.679688 198.636719 81.097656 Z M 59.613281 294.804688 C 89.53125 294.804688 143.972656 300.203125 185.140625 335.070312 L 185.140625 81.097656 C 130.699219 46.679688 63.210938 59.949219 44.992188 64.675781 L 44.992188 295.253906 C 48.816406 295.03125 53.765625 294.804688 59.613281 294.804688 Z M 59.613281 294.804688 " fill-opacity="1" fill-rule="evenodd"/><path fill="#ff0000" d="M 154.996094 118.214844 L 75.359375 118.214844 C 71.535156 118.214844 68.613281 115.289062 68.613281 111.464844 C 68.613281 107.867188 71.535156 104.71875 75.359375 104.71875 L 154.996094 104.71875 C 158.59375 104.71875 161.742188 107.867188 161.742188 111.464844 C 161.742188 115.289062 158.59375 118.214844 154.996094 118.214844 Z M 154.996094 118.214844 " fill-opacity="1" fill-rule="evenodd"/><path fill="#ff0000" d="M 154.996094 154.882812 L 75.359375 154.882812 C 71.535156 154.882812 68.613281 151.734375 68.613281 148.132812 C 68.613281 144.308594 71.535156 141.386719 75.359375 141.386719 L 154.996094 141.386719 C 158.59375 141.386719 161.742188 144.308594 161.742188 148.132812 C 161.742188 151.734375 158.59375 154.882812 154.996094 154.882812 Z M 154.996094 154.882812 " fill-opacity="1" fill-rule="evenodd"/><path fill="#ff0000" d="M 154.996094 191.324219 L 75.359375 191.324219 C 71.535156 191.324219 68.613281 188.175781 68.613281 184.578125 C 68.613281 180.753906 71.535156 177.828125 75.359375 177.828125 L 154.996094 177.828125 C 158.59375 177.828125 161.742188 180.753906 161.742188 184.578125 C 161.742188 188.175781 158.59375 191.324219 154.996094 191.324219 Z M 154.996094 191.324219 " fill-opacity="1" fill-rule="evenodd"/><path fill="#ff0000" d="M 154.996094 227.769531 L 75.359375 227.769531 C 71.535156 227.769531 68.613281 224.617188 68.613281 221.019531 C 68.613281 217.195312 71.535156 214.269531 75.359375 214.269531 L 154.996094 214.269531 C 158.59375 214.269531 161.742188 217.195312 161.742188 221.019531 C 161.742188 224.617188 158.59375 227.769531 154.996094 227.769531 Z M 154.996094 227.769531 " fill-opacity="1" fill-rule="evenodd"/><path fill="#ff0000" d="M 154.996094 264.210938 L 75.359375 264.210938 C 71.535156 264.210938 68.613281 261.285156 68.613281 257.460938 C 68.613281 253.636719 71.535156 250.714844 75.359375 250.714844 L 154.996094 250.714844 C 158.59375 250.714844 161.742188 253.636719 161.742188 257.460938 C 161.742188 261.285156 158.59375 264.210938 154.996094 264.210938 Z M 154.996094 264.210938 " fill-opacity="1" fill-rule="evenodd"/><path fill="#ff0000" d="M 309.089844 118.214844 L 229.457031 118.214844 C 225.855469 118.214844 222.707031 115.289062 222.707031 111.464844 C 222.707031 107.867188 225.855469 104.71875 229.457031 104.71875 L 309.089844 104.71875 C 312.6875 104.71875 315.839844 107.867188 315.839844 111.464844 C 315.839844 115.289062 312.6875 118.214844 309.089844 118.214844 Z M 309.089844 118.214844 " fill-opacity="1" fill-rule="evenodd"/><path fill="#ff0000" d="M 309.089844 154.882812 L 229.457031 154.882812 C 225.855469 154.882812 222.707031 151.734375 222.707031 148.132812 C 222.707031 144.308594 225.855469 141.386719 229.457031 141.386719 L 309.089844 141.386719 C 312.6875 141.386719 315.839844 144.308594 315.839844 148.132812 C 315.839844 151.734375 312.6875 154.882812 309.089844 154.882812 Z M 309.089844 154.882812 " fill-opacity="1" fill-rule="evenodd"/><path fill="#ff0000" d="M 309.089844 191.324219 L 229.457031 191.324219 C 225.855469 191.324219 222.707031 188.175781 222.707031 184.578125 C 222.707031 180.753906 225.855469 177.828125 229.457031 177.828125 L 309.089844 177.828125 C 312.6875 177.828125 315.839844 180.753906 315.839844 184.578125 C 315.839844 188.175781 312.6875 191.324219 309.089844 191.324219 Z M 309.089844 191.324219 " fill-opacity="1" fill-rule="evenodd"/><path fill="#ff0000" d="M 309.089844 227.769531 L 229.457031 227.769531 C 225.855469 227.769531 222.707031 224.617188 222.707031 221.019531 C 222.707031 217.195312 225.855469 214.269531 229.457031 214.269531 L 309.089844 214.269531 C 312.6875 214.269531 315.839844 217.195312 315.839844 221.019531 C 315.839844 224.617188 312.6875 227.769531 309.089844 227.769531 Z M 309.089844 227.769531 " fill-opacity="1" fill-rule="evenodd"/><path fill="#ff0000" d="M 309.089844 264.210938 L 229.457031 264.210938 C 225.855469 264.210938 222.707031 261.285156 222.707031 257.460938 C 222.707031 253.636719 225.855469 250.714844 229.457031 250.714844 L 309.089844 250.714844 C 312.6875 250.714844 315.839844 253.636719 315.839844 257.460938 C 315.839844 261.285156 312.6875 264.210938 309.089844 264.210938 Z M 309.089844 264.210938 " fill-opacity="1" fill-rule="evenodd"/></svg>