<svg xmlns="http://www.w3.org/2000/svg" xmlns:xlink="http://www.w3.org/1999/xlink" width="24" zoomAndPan="magnify" viewBox="0 0 384 383.999986" height="24" preserveAspectRatio="xMidYMid meet" version="1.0"><path fill="#ffffff" d="M 384.011719 191.957031 C 384.011719 195.101562 383.933594 198.242188 383.78125 201.382812 C 383.625 204.519531 383.394531 207.65625 383.085938 210.785156 C 382.777344 213.910156 382.394531 217.03125 381.933594 220.140625 C 381.46875 223.25 380.933594 226.347656 380.320312 229.429688 C 379.707031 232.511719 379.019531 235.578125 378.253906 238.628906 C 377.492188 241.675781 376.652344 244.707031 375.738281 247.714844 C 374.828125 250.722656 373.84375 253.707031 372.78125 256.664062 C 371.722656 259.625 370.59375 262.558594 369.390625 265.460938 C 368.1875 268.363281 366.914062 271.238281 365.570312 274.078125 C 364.226562 276.921875 362.8125 279.726562 361.332031 282.5 C 359.847656 285.273438 358.300781 288.007812 356.683594 290.703125 C 355.066406 293.398438 353.386719 296.054688 351.640625 298.667969 C 349.894531 301.28125 348.085938 303.851562 346.210938 306.375 C 344.339844 308.902344 342.40625 311.378906 340.410156 313.808594 C 338.417969 316.238281 336.363281 318.617188 334.253906 320.945312 C 332.144531 323.277344 329.976562 325.550781 327.753906 327.773438 C 325.53125 329.996094 323.253906 332.164062 320.925781 334.277344 C 318.597656 336.386719 316.214844 338.4375 313.785156 340.433594 C 311.355469 342.425781 308.878906 344.359375 306.355469 346.234375 C 303.828125 348.105469 301.261719 349.914062 298.648438 351.660156 C 296.03125 353.40625 293.378906 355.089844 290.683594 356.707031 C 287.984375 358.320312 285.25 359.871094 282.480469 361.351562 C 279.707031 362.835938 276.898438 364.246094 274.058594 365.589844 C 271.214844 366.933594 268.34375 368.207031 265.4375 369.410156 C 262.535156 370.613281 259.601562 371.746094 256.644531 372.804688 C 253.683594 373.863281 250.699219 374.847656 247.691406 375.761719 C 244.683594 376.675781 241.65625 377.511719 238.605469 378.277344 C 235.554688 379.039062 232.488281 379.730469 229.40625 380.34375 C 226.324219 380.957031 223.226562 381.492188 220.117188 381.953125 C 217.007812 382.414062 213.890625 382.800781 210.761719 383.109375 C 207.632812 383.417969 204.5 383.648438 201.359375 383.800781 C 198.21875 383.957031 195.078125 384.03125 191.933594 384.03125 C 188.792969 384.03125 185.648438 383.957031 182.511719 383.800781 C 179.371094 383.648438 176.238281 383.417969 173.109375 383.109375 C 169.980469 382.800781 166.859375 382.414062 163.75 381.953125 C 160.640625 381.492188 157.546875 380.953125 154.460938 380.34375 C 151.378906 379.730469 148.3125 379.039062 145.265625 378.277344 C 142.214844 377.511719 139.1875 376.675781 136.179688 375.761719 C 133.171875 374.847656 130.1875 373.863281 127.226562 372.804688 C 124.265625 371.746094 121.335938 370.613281 118.429688 369.410156 C 115.527344 368.207031 112.652344 366.933594 109.8125 365.589844 C 106.96875 364.246094 104.164062 362.835938 101.390625 361.351562 C 98.617188 359.871094 95.882812 358.320312 93.1875 356.707031 C 90.492188 355.089844 87.835938 353.410156 85.222656 351.660156 C 82.609375 349.914062 80.039062 348.105469 77.515625 346.234375 C 74.992188 344.359375 72.511719 342.425781 70.082031 340.433594 C 67.652344 338.4375 65.273438 336.386719 62.945312 334.277344 C 60.617188 332.164062 58.339844 329.996094 56.117188 327.773438 C 53.894531 325.550781 51.726562 323.277344 49.617188 320.945312 C 47.503906 318.617188 45.453125 316.238281 43.457031 313.808594 C 41.464844 311.378906 39.53125 308.902344 37.65625 306.375 C 35.785156 303.851562 33.976562 301.28125 32.230469 298.667969 C 30.484375 296.054688 28.800781 293.398438 27.1875 290.703125 C 25.570312 288.007812 24.019531 285.273438 22.539062 282.5 C 21.058594 279.726562 19.644531 276.921875 18.300781 274.078125 C 16.957031 271.238281 15.683594 268.363281 14.480469 265.460938 C 13.277344 262.558594 12.144531 259.625 11.085938 256.664062 C 10.027344 253.707031 9.042969 250.722656 8.128906 247.714844 C 7.21875 244.707031 6.378906 241.675781 5.613281 238.628906 C 4.851562 235.578125 4.164062 232.511719 3.550781 229.429688 C 2.9375 226.347656 2.398438 223.25 1.9375 220.140625 C 1.476562 217.03125 1.09375 213.910156 0.785156 210.785156 C 0.476562 207.65625 0.246094 204.519531 0.0898438 201.382812 C -0.0625 198.242188 -0.140625 195.101562 -0.140625 191.957031 C -0.140625 188.8125 -0.0625 185.671875 0.0898438 182.53125 C 0.246094 179.390625 0.476562 176.257812 0.785156 173.128906 C 1.09375 170.003906 1.476562 166.882812 1.9375 163.773438 C 2.398438 160.664062 2.9375 157.566406 3.550781 154.484375 C 4.164062 151.402344 4.851562 148.335938 5.613281 145.285156 C 6.378906 142.238281 7.21875 139.207031 8.128906 136.199219 C 9.042969 133.191406 10.027344 130.207031 11.085938 127.25 C 12.144531 124.289062 13.277344 121.355469 14.480469 118.453125 C 15.683594 115.546875 16.957031 112.675781 18.300781 109.832031 C 19.644531 106.992188 21.058594 104.183594 22.539062 101.414062 C 24.019531 98.640625 25.570312 95.90625 27.1875 93.210938 C 28.800781 90.511719 30.484375 87.859375 32.230469 85.246094 C 33.976562 82.632812 35.785156 80.0625 37.65625 77.539062 C 39.53125 75.011719 41.464844 72.535156 43.457031 70.105469 C 45.453125 67.675781 47.503906 65.296875 49.617188 62.964844 C 51.726562 60.636719 53.894531 58.359375 56.117188 56.136719 C 58.339844 53.914062 60.617188 51.75 62.945312 49.636719 C 65.273438 47.527344 67.652344 45.472656 70.082031 43.480469 C 72.511719 41.484375 74.992188 39.550781 77.515625 37.679688 C 80.039062 35.808594 82.609375 33.996094 85.222656 32.25 C 87.835938 30.503906 90.492188 28.824219 93.1875 27.207031 C 95.882812 25.589844 98.617188 24.042969 101.390625 22.5625 C 104.164062 21.078125 106.96875 19.664062 109.8125 18.320312 C 112.652344 16.976562 115.527344 15.703125 118.429688 14.5 C 121.335938 13.296875 124.265625 12.167969 127.226562 11.109375 C 130.1875 10.050781 133.171875 9.0625 136.179688 8.152344 C 139.1875 7.238281 142.214844 6.402344 145.265625 5.636719 C 148.3125 4.875 151.378906 4.183594 154.460938 3.570312 C 157.546875 2.957031 160.640625 2.421875 163.75 1.960938 C 166.859375 1.5 169.980469 1.113281 173.109375 0.804688 C 176.238281 0.496094 179.371094 0.265625 182.511719 0.113281 C 185.648438 -0.0429688 188.792969 -0.121094 191.933594 -0.121094 C 195.078125 -0.121094 198.21875 -0.0429688 201.359375 0.113281 C 204.5 0.265625 207.632812 0.496094 210.761719 0.804688 C 213.890625 1.113281 217.007812 1.5 220.117188 1.960938 C 223.226562 2.421875 226.324219 2.957031 229.40625 3.570312 C 232.488281 4.183594 235.554688 4.875 238.605469 5.636719 C 241.65625 6.402344 244.683594 7.238281 247.691406 8.152344 C 250.699219 9.0625 253.683594 10.050781 256.644531 11.109375 C 259.601562 12.167969 262.535156 13.296875 265.4375 14.5 C 268.34375 15.703125 271.214844 16.976562 274.058594 18.320312 C 276.898438 19.664062 279.707031 21.078125 282.480469 22.5625 C 285.25 24.042969 287.984375 25.589844 290.683594 27.207031 C 293.378906 28.824219 296.03125 30.503906 298.648438 32.25 C 301.261719 33.996094 303.828125 35.808594 306.355469 37.679688 C 308.878906 39.550781 311.355469 41.484375 313.785156 43.480469 C 316.214844 45.472656 318.597656 47.527344 320.925781 49.636719 C 323.253906 51.75 325.53125 53.914062 327.753906 56.136719 C 329.976562 58.359375 332.144531 60.636719 334.253906 62.964844 C 336.363281 65.296875 338.417969 67.675781 340.410156 70.105469 C 342.40625 72.535156 344.339844 75.011719 346.210938 77.539062 C 348.085938 80.0625 349.894531 82.632812 351.640625 85.246094 C 353.386719 87.859375 355.066406 90.511719 356.683594 93.210938 C 358.300781 95.90625 359.847656 98.640625 361.332031 101.414062 C 362.8125 104.183594 364.226562 106.992188 365.570312 109.832031 C 366.914062 112.675781 368.1875 115.546875 369.390625 118.453125 C 370.59375 121.355469 371.722656 124.289062 372.78125 127.25 C 373.84375 130.207031 374.828125 133.191406 375.738281 136.199219 C 376.652344 139.207031 377.492188 142.238281 378.253906 145.285156 C 379.019531 148.335938 379.707031 151.402344 380.320312 154.484375 C 380.933594 157.566406 381.46875 160.664062 381.933594 163.773438 C 382.394531 166.882812 382.777344 170.003906 383.085938 173.128906 C 383.394531 176.257812 383.625 179.390625 383.78125 182.53125 C 383.933594 185.671875 384.011719 188.8125 384.011719 191.957031 Z M 384.011719 191.957031 " fill-opacity="1" fill-rule="nonzero"/><path fill="#000000" d="M 327.761719 56.238281 C 293.03125 21.503906 245.039062 0.0078125 192.039062 0 C 192.027344 0 192.007812 0 192 0 C 191.992188 0 191.972656 0 191.960938 0 C 138.960938 0.0078125 90.96875 21.503906 56.238281 56.238281 C 45.628906 66.84375 36.269531 78.691406 28.367188 91.535156 C 28.214844 91.746094 28.078125 91.957031 27.964844 92.1875 C 10.222656 121.277344 0 155.441406 0 192 C 0 228.558594 10.222656 262.722656 27.957031 291.8125 C 28.078125 292.042969 28.214844 292.253906 28.359375 292.464844 C 36.257812 305.308594 45.628906 317.15625 56.238281 327.761719 C 90.980469 362.503906 138.988281 384 192 384 C 245.011719 384 293.019531 362.503906 327.761719 327.761719 C 362.503906 293.019531 384 245.011719 384 192 C 384 138.988281 362.503906 90.980469 327.761719 56.238281 Z M 349.285156 278.785156 L 309.945312 279.273438 C 318.59375 254.648438 323.710938 226.933594 324.289062 197.597656 L 371.5 198.105469 C 370.53125 227.300781 362.59375 254.726562 349.285156 278.785156 Z M 12.414062 194.257812 L 59.671875 194.765625 C 59.980469 226.328125 65.53125 256.070312 75.101562 282.203125 L 36.929688 282.679688 C 21.6875 256.664062 12.804688 226.484375 12.414062 194.257812 Z M 36.929688 101.328125 L 75.101562 101.808594 C 66.222656 126.046875 60.796875 153.398438 59.808594 182.429688 L 12.671875 181.921875 C 14.292969 152.628906 22.925781 125.222656 36.929688 101.328125 Z M 246.007812 184.425781 C 245.710938 155.433594 243.707031 128.09375 240.375 103.863281 L 296.765625 104.5625 C 305.75 128.5625 311.136719 155.941406 311.875 185.125 Z M 192 371.617188 C 181.957031 371.605469 172.042969 352.597656 164.121094 321.859375 C 161.894531 313.230469 159.898438 303.726562 158.160156 293.492188 L 225.984375 292.644531 C 224.207031 303.195312 222.152344 312.988281 219.878906 321.859375 C 211.957031 352.597656 202.042969 371.617188 192 371.617188 Z M 156.238281 281.183594 C 152.621094 255.839844 150.5 226.753906 150.34375 195.726562 L 233.664062 196.617188 C 233.472656 226.945312 231.40625 255.398438 227.894531 280.292969 Z M 150.382812 183.398438 C 150.730469 154.203125 152.8125 126.835938 156.238281 102.816406 L 227.894531 103.707031 C 231.28125 127.757812 233.328125 155.125 233.636719 184.292969 Z M 158.160156 90.5 C 159.90625 80.265625 161.902344 70.761719 164.121094 62.132812 C 172.042969 31.402344 181.96875 12.382812 192 12.382812 C 202.042969 12.382812 211.957031 31.402344 219.867188 62.140625 C 222.152344 71 224.199219 80.792969 225.972656 91.355469 Z M 238.511719 91.507812 C 236.59375 79.777344 234.34375 68.898438 231.8125 59.097656 C 227.058594 40.636719 221.117188 25.746094 214.292969 15.523438 C 238.089844 22.273438 259.46875 39.582031 276.097656 64.078125 C 281.894531 72.625 287.117188 82.042969 291.65625 92.167969 Z M 152.179688 59.089844 C 149.742188 68.574219 147.550781 79.046875 145.671875 90.34375 L 93.445312 89.691406 C 97.726562 80.496094 102.558594 71.914062 107.886719 64.070312 C 124.511719 39.582031 145.890625 22.261719 169.691406 15.511719 C 162.875 25.738281 156.941406 40.636719 152.179688 59.089844 Z M 143.789062 102.664062 C 140.398438 126.863281 138.34375 154.234375 138 183.265625 L 72.203125 182.5625 C 73.21875 153.292969 78.921875 125.894531 88.222656 101.972656 Z M 72.058594 194.890625 L 137.960938 195.601562 C 138.113281 226.550781 140.207031 255.714844 143.796875 281.347656 L 88.222656 282.039062 C 78.222656 256.339844 72.394531 226.628906 72.058594 194.890625 Z M 145.671875 293.65625 C 147.550781 304.945312 149.730469 315.425781 152.179688 324.910156 C 156.929688 343.371094 162.875 358.261719 169.699219 368.488281 C 145.902344 361.738281 124.523438 344.429688 107.894531 319.929688 C 102.566406 312.085938 97.738281 303.503906 93.457031 294.308594 Z M 231.820312 324.910156 C 234.34375 315.109375 236.59375 304.234375 238.523438 292.503906 L 291.675781 291.839844 C 287.125 301.976562 281.914062 311.386719 276.113281 319.929688 C 259.488281 344.417969 238.109375 361.738281 214.308594 368.488281 C 221.125 358.261719 227.058594 343.371094 231.820312 324.910156 Z M 240.375 280.136719 C 243.820312 255.121094 245.847656 226.789062 246.039062 196.753906 L 311.902344 197.453125 C 311.308594 227.164062 305.886719 255.035156 296.765625 279.425781 Z M 324.257812 185.261719 C 323.566406 156.34375 318.488281 129.035156 309.945312 104.726562 L 349.285156 105.214844 C 362.5625 129.234375 370.503906 156.613281 371.492188 185.761719 Z M 319.007812 64.992188 C 327.476562 73.460938 335.089844 82.78125 341.742188 92.792969 L 305.183594 92.34375 C 299.835938 79.554688 293.492188 67.746094 286.308594 57.167969 C 277.601562 44.34375 267.648438 33.300781 256.742188 24.433594 C 280.300781 33.523438 301.46875 47.441406 319.007812 64.992188 Z M 64.992188 64.992188 C 82.539062 47.453125 103.699219 33.523438 127.257812 24.421875 C 116.351562 33.292969 106.398438 44.332031 97.691406 57.160156 C 91.035156 66.960938 85.09375 77.816406 80.007812 89.53125 L 44.773438 89.089844 C 50.8125 80.476562 57.570312 72.402344 64.992188 64.992188 Z M 44.773438 294.910156 L 79.996094 294.46875 C 85.085938 306.183594 91.027344 317.039062 97.679688 326.839844 C 106.386719 339.667969 116.34375 350.707031 127.246094 359.585938 C 103.691406 350.476562 82.523438 336.558594 64.980469 319.015625 C 57.570312 311.597656 50.8125 303.523438 44.773438 294.910156 Z M 319.007812 319.007812 C 301.460938 336.546875 280.300781 350.476562 256.742188 359.578125 C 267.648438 350.707031 277.601562 339.667969 286.308594 326.832031 C 293.492188 316.253906 299.835938 304.445312 305.183594 291.65625 L 341.742188 291.207031 C 335.097656 301.230469 327.476562 310.539062 319.007812 319.007812 Z M 319.007812 319.007812 " fill-opacity="1" fill-rule="nonzero"/></svg>
