<svg xmlns="http://www.w3.org/2000/svg" xmlns:xlink="http://www.w3.org/1999/xlink" width="24" zoomAndPan="magnify" viewBox="0 0 384 383.999986" height="24" preserveAspectRatio="xMidYMid meet" version="1.0"><defs><clipPath id="9cf9283114"><path d="M 28.066406 28.066406 L 355.816406 28.066406 L 355.816406 355.816406 L 28.066406 355.816406 Z M 28.066406 28.066406 " clip-rule="nonzero"/></clipPath></defs><g clip-path="url(#9cf9283114)"><path fill="#ffffff" d="M 355.933594 192 C 355.933594 194.683594 355.867188 197.363281 355.734375 200.042969 C 355.605469 202.722656 355.40625 205.398438 355.144531 208.066406 C 354.882812 210.738281 354.550781 213.398438 354.160156 216.054688 C 353.765625 218.707031 353.308594 221.351562 352.785156 223.980469 C 352.261719 226.613281 351.671875 229.230469 351.019531 231.832031 C 350.367188 234.433594 349.652344 237.019531 348.875 239.585938 C 348.09375 242.15625 347.253906 244.703125 346.351562 247.226562 C 345.445312 249.753906 344.480469 252.253906 343.453125 254.734375 C 342.429688 257.214844 341.339844 259.664062 340.195312 262.089844 C 339.046875 264.515625 337.839844 266.910156 336.578125 269.277344 C 335.3125 271.644531 333.988281 273.976562 332.609375 276.277344 C 331.230469 278.578125 329.796875 280.84375 328.304688 283.078125 C 326.816406 285.308594 325.269531 287.5 323.671875 289.65625 C 322.074219 291.808594 320.425781 293.925781 318.722656 296 C 317.019531 298.070312 315.269531 300.101562 313.464844 302.089844 C 311.664062 304.078125 309.816406 306.019531 307.917969 307.917969 C 306.019531 309.816406 304.078125 311.664062 302.089844 313.464844 C 300.101562 315.269531 298.070312 317.019531 295.996094 318.722656 C 293.925781 320.425781 291.808594 322.074219 289.65625 323.671875 C 287.5 325.269531 285.308594 326.816406 283.078125 328.304688 C 280.84375 329.796875 278.578125 331.230469 276.277344 332.609375 C 273.976562 333.988281 271.644531 335.3125 269.277344 336.578125 C 266.910156 337.839844 264.515625 339.046875 262.089844 340.195312 C 259.664062 341.339844 257.214844 342.429688 254.734375 343.453125 C 252.253906 344.480469 249.753906 345.445312 247.226562 346.351562 C 244.699219 347.253906 242.15625 348.09375 239.585938 348.875 C 237.019531 349.652344 234.433594 350.367188 231.832031 351.019531 C 229.230469 351.671875 226.613281 352.261719 223.980469 352.785156 C 221.351562 353.308594 218.707031 353.765625 216.054688 354.160156 C 213.398438 354.550781 210.738281 354.882812 208.066406 355.144531 C 205.398438 355.40625 202.722656 355.605469 200.042969 355.734375 C 197.363281 355.867188 194.683594 355.933594 192 355.933594 C 189.316406 355.933594 186.636719 355.867188 183.957031 355.734375 C 181.277344 355.605469 178.601562 355.40625 175.929688 355.144531 C 173.261719 354.882812 170.597656 354.550781 167.945312 354.160156 C 165.292969 353.765625 162.648438 353.308594 160.019531 352.785156 C 157.386719 352.261719 154.769531 351.671875 152.167969 351.019531 C 149.566406 350.367188 146.980469 349.652344 144.414062 348.875 C 141.84375 348.09375 139.296875 347.253906 136.773438 346.351562 C 134.246094 345.445312 131.742188 344.480469 129.265625 343.453125 C 126.785156 342.429688 124.335938 341.339844 121.910156 340.195312 C 119.484375 339.046875 117.089844 337.839844 114.722656 336.578125 C 112.355469 335.3125 110.023438 333.988281 107.722656 332.609375 C 105.417969 331.230469 103.152344 329.796875 100.921875 328.304688 C 98.691406 326.816406 96.5 325.269531 94.34375 323.671875 C 92.191406 322.074219 90.074219 320.425781 88 318.722656 C 85.925781 317.019531 83.898438 315.269531 81.910156 313.464844 C 79.921875 311.664062 77.976562 309.816406 76.082031 307.917969 C 74.183594 306.019531 72.335938 304.078125 70.53125 302.089844 C 68.730469 300.101562 66.980469 298.070312 65.277344 296 C 63.574219 293.925781 61.925781 291.808594 60.328125 289.65625 C 58.730469 287.5 57.183594 285.308594 55.695312 283.078125 C 54.203125 280.84375 52.769531 278.578125 51.390625 276.277344 C 50.011719 273.976562 48.6875 271.644531 47.421875 269.277344 C 46.160156 266.910156 44.953125 264.515625 43.804688 262.089844 C 42.660156 259.664062 41.570312 257.214844 40.542969 254.734375 C 39.519531 252.253906 38.554688 249.753906 37.648438 247.226562 C 36.746094 244.703125 35.902344 242.15625 35.125 239.585938 C 34.347656 237.019531 33.632812 234.433594 32.980469 231.832031 C 32.328125 229.230469 31.738281 226.613281 31.214844 223.980469 C 30.691406 221.351562 30.234375 218.707031 29.839844 216.054688 C 29.445312 213.398438 29.117188 210.738281 28.855469 208.066406 C 28.59375 205.398438 28.394531 202.722656 28.265625 200.042969 C 28.132812 197.363281 28.066406 194.683594 28.066406 192 C 28.066406 189.316406 28.132812 186.636719 28.265625 183.957031 C 28.394531 181.277344 28.59375 178.601562 28.855469 175.929688 C 29.117188 173.261719 29.445312 170.597656 29.839844 167.945312 C 30.234375 165.292969 30.691406 162.648438 31.214844 160.019531 C 31.738281 157.386719 32.328125 154.769531 32.980469 152.167969 C 33.632812 149.566406 34.347656 146.980469 35.125 144.414062 C 35.902344 141.84375 36.746094 139.296875 37.648438 136.773438 C 38.554688 134.246094 39.519531 131.742188 40.542969 129.265625 C 41.570312 126.785156 42.660156 124.335938 43.804688 121.910156 C 44.953125 119.484375 46.160156 117.089844 47.421875 114.722656 C 48.6875 112.355469 50.011719 110.023438 51.390625 107.722656 C 52.769531 105.417969 54.203125 103.152344 55.695312 100.921875 C 57.183594 98.691406 58.730469 96.5 60.328125 94.34375 C 61.925781 92.191406 63.574219 90.074219 65.277344 88 C 66.980469 85.925781 68.730469 83.898438 70.53125 81.910156 C 72.335938 79.921875 74.183594 77.976562 76.082031 76.082031 C 77.976562 74.183594 79.921875 72.335938 81.910156 70.53125 C 83.898438 68.730469 85.925781 66.980469 88 65.277344 C 90.074219 63.574219 92.191406 61.925781 94.34375 60.328125 C 96.5 58.730469 98.691406 57.183594 100.921875 55.695312 C 103.152344 54.203125 105.417969 52.769531 107.722656 51.390625 C 110.023438 50.011719 112.355469 48.6875 114.722656 47.421875 C 117.089844 46.160156 119.484375 44.953125 121.910156 43.804688 C 124.335938 42.660156 126.785156 41.570312 129.265625 40.546875 C 131.742188 39.519531 134.246094 38.554688 136.773438 37.648438 C 139.296875 36.746094 141.84375 35.902344 144.414062 35.125 C 146.980469 34.347656 149.566406 33.632812 152.167969 32.980469 C 154.769531 32.328125 157.386719 31.738281 160.019531 31.214844 C 162.648438 30.691406 165.292969 30.234375 167.945312 29.839844 C 170.597656 29.445312 173.261719 29.117188 175.929688 28.855469 C 178.601562 28.59375 181.277344 28.394531 183.957031 28.265625 C 186.636719 28.132812 189.316406 28.066406 192 28.066406 C 194.683594 28.066406 197.363281 28.132812 200.042969 28.265625 C 202.722656 28.394531 205.398438 28.59375 208.066406 28.855469 C 210.738281 29.117188 213.398438 29.445312 216.054688 29.839844 C 218.707031 30.234375 221.351562 30.691406 223.980469 31.214844 C 226.613281 31.738281 229.230469 32.328125 231.832031 32.980469 C 234.433594 33.632812 237.019531 34.347656 239.585938 35.125 C 242.15625 35.902344 244.699219 36.746094 247.226562 37.648438 C 249.753906 38.554688 252.253906 39.519531 254.734375 40.546875 C 257.214844 41.570312 259.664062 42.660156 262.089844 43.804688 C 264.515625 44.953125 266.910156 46.160156 269.277344 47.421875 C 271.644531 48.6875 273.976562 50.011719 276.277344 51.390625 C 278.578125 52.769531 280.84375 54.203125 283.078125 55.695312 C 285.308594 57.183594 287.5 58.730469 289.65625 60.328125 C 291.808594 61.925781 293.925781 63.574219 295.996094 65.277344 C 298.070312 66.980469 300.101562 68.730469 302.089844 70.53125 C 304.078125 72.335938 306.019531 74.183594 307.917969 76.082031 C 309.816406 77.976562 311.664062 79.921875 313.464844 81.910156 C 315.269531 83.898438 317.019531 85.925781 318.722656 88 C 320.425781 90.074219 322.074219 92.191406 323.671875 94.34375 C 325.269531 96.5 326.816406 98.691406 328.304688 100.921875 C 329.796875 103.152344 331.230469 105.417969 332.609375 107.722656 C 333.988281 110.023438 335.3125 112.355469 336.578125 114.722656 C 337.839844 117.089844 339.046875 119.484375 340.195312 121.910156 C 341.339844 124.335938 342.429688 126.785156 343.453125 129.265625 C 344.480469 131.742188 345.445312 134.246094 346.351562 136.773438 C 347.253906 139.296875 348.09375 141.84375 348.875 144.414062 C 349.652344 146.980469 350.367188 149.566406 351.019531 152.167969 C 351.671875 154.769531 352.261719 157.386719 352.785156 160.019531 C 353.308594 162.648438 353.765625 165.292969 354.160156 167.945312 C 354.550781 170.601562 354.882812 173.261719 355.144531 175.929688 C 355.40625 178.601562 355.605469 181.277344 355.734375 183.957031 C 355.867188 186.636719 355.933594 189.316406 355.933594 192 Z M 355.933594 192 " fill-opacity="1" fill-rule="nonzero"/></g><path fill="#000000" d="M 217.46875 134.792969 L 150.855469 145.761719 L 145.761719 160.652344 L 151.25 160.261719 C 158.300781 159.871094 162.613281 159.871094 164.964844 162.21875 C 166.921875 164.179688 167.3125 165.746094 167.3125 166.53125 C 167.3125 170.449219 166.140625 176.71875 163.789062 184.945312 L 137.535156 275.070312 C 135.183594 282.515625 134.007812 288.785156 134.007812 293.878906 C 134.007812 302.105469 136.75 308.765625 142.628906 314.253906 C 148.113281 319.347656 155.558594 322.089844 164.570312 322.089844 C 187.296875 322.089844 208.847656 304.847656 228.441406 270.757812 L 230.398438 267.625 L 217.46875 260.179688 L 215.511719 262.921875 C 207.671875 274.675781 201.402344 282.90625 195.917969 287.214844 C 194.351562 288.390625 193.175781 289.175781 192 289.175781 C 192 289.175781 191.609375 289.175781 191.214844 288.390625 C 190.433594 287.609375 190.433594 287.214844 190.433594 287.214844 C 190.433594 286.039062 190.824219 282.90625 193.566406 273.109375 L 233.535156 134.398438 L 217.46875 134.398438 Z M 237.84375 109.714844 C 244.113281 103.445312 247.25 96 247.25 87.378906 C 247.25 78.757812 244.113281 71.3125 238.238281 65.042969 C 232.359375 58.777344 224.523438 55.640625 215.902344 55.640625 C 207.28125 55.640625 199.835938 58.777344 193.566406 65.042969 C 187.691406 71.3125 184.554688 78.757812 184.554688 87.378906 C 184.554688 96 187.691406 103.445312 193.960938 109.714844 C 200.230469 115.984375 207.671875 119.117188 215.902344 119.117188 C 224.523438 118.726562 231.96875 115.59375 237.84375 109.714844 M 355.394531 192 C 355.394531 282.121094 282.121094 355.394531 192 355.394531 C 101.878906 355.394531 28.605469 282.121094 28.605469 192 C 28.605469 101.878906 101.878906 28.605469 192 28.605469 C 282.121094 28.605469 355.394531 101.878906 355.394531 192 M 384 192 C 384 86.203125 297.796875 0 192 0 C 86.203125 0 0 86.203125 0 192 C 0 297.796875 86.203125 384 192 384 C 297.796875 384 384 297.796875 384 192 " fill-opacity="1" fill-rule="nonzero"/></svg>
