<svg xmlns="http://www.w3.org/2000/svg" xmlns:xlink="http://www.w3.org/1999/xlink" width="512" zoomAndPan="magnify" viewBox="0 0 384 383.999986" height="512" preserveAspectRatio="xMidYMid meet" version="1.0"><defs><clipPath id="7b2a556706"><path d="M 0.0195312 33.359375 L 383.992188 33.359375 L 383.992188 97 L 0.0195312 97 Z M 0.0195312 33.359375 " clip-rule="nonzero"/></clipPath><clipPath id="33ad55b67a"><path d="M 0.0195312 160 L 383.992188 160 L 383.992188 224 L 0.0195312 224 Z M 0.0195312 160 " clip-rule="nonzero"/></clipPath><clipPath id="1a126be5d1"><path d="M 0.0195312 287 L 383.992188 287 L 383.992188 350.609375 L 0.0195312 350.609375 Z M 0.0195312 287 " clip-rule="nonzero"/></clipPath></defs><g clip-path="url(#7b2a556706)"><path fill="#ff0000" d="M 352.253906 96.828125 L 31.753906 96.828125 C 14.226562 96.828125 0.0195312 82.621094 0.0195312 65.09375 C 0.0195312 47.570312 14.226562 33.367188 31.753906 33.367188 L 352.253906 33.367188 C 369.78125 33.367188 383.988281 47.570312 383.988281 65.09375 C 383.988281 82.621094 369.78125 96.828125 352.253906 96.828125 " fill-opacity="1" fill-rule="nonzero"/></g><g clip-path="url(#33ad55b67a)"><path fill="#ff0000" d="M 352.253906 223.761719 L 31.753906 223.761719 C 14.226562 223.761719 0.0195312 209.554688 0.0195312 192.027344 C 0.0195312 174.5 14.226562 160.292969 31.753906 160.292969 L 352.253906 160.292969 C 369.78125 160.292969 383.988281 174.5 383.988281 192.027344 C 383.988281 209.554688 369.78125 223.761719 352.253906 223.761719 " fill-opacity="1" fill-rule="nonzero"/></g><g clip-path="url(#1a126be5d1)"><path fill="#ff0000" d="M 352.253906 350.695312 L 31.753906 350.695312 C 14.226562 350.695312 0.0195312 336.488281 0.0195312 318.960938 C 0.0195312 301.433594 14.226562 287.226562 31.753906 287.226562 L 352.253906 287.226562 C 369.78125 287.226562 383.988281 301.433594 383.988281 318.960938 C 383.988281 336.488281 369.78125 350.695312 352.253906 350.695312 " fill-opacity="1" fill-rule="nonzero"/></g></svg>