<svg xmlns="http://www.w3.org/2000/svg" xmlns:xlink="http://www.w3.org/1999/xlink" width="512" zoomAndPan="magnify" viewBox="0 0 384 383.999986" height="512" preserveAspectRatio="xMidYMid meet" version="1.0"><path fill="#ff0000" d="M 246.816406 280.796875 L 340.871094 374.820312 C 350.179688 384.128906 365.304688 384.125 374.617188 374.8125 C 383.925781 365.5 383.921875 350.375 374.609375 341.0625 L 280.621094 247.109375 C 299.527344 221.390625 310.703125 189.632812 310.703125 155.28125 C 310.703125 69.578125 241.125 0 155.425781 0 C 69.722656 0 0.144531 69.578125 0.144531 155.28125 C 0.144531 240.984375 69.722656 310.5625 155.425781 310.5625 C 189.578125 310.5625 221.167969 299.515625 246.816406 280.796875 Z M 155.425781 47.726562 C 214.785156 47.726562 262.980469 95.917969 262.980469 155.28125 C 262.980469 214.640625 214.785156 262.839844 155.425781 262.839844 C 96.0625 262.839844 47.871094 214.640625 47.871094 155.28125 C 47.871094 95.917969 96.0625 47.726562 155.425781 47.726562 Z M 155.425781 47.726562 " fill-opacity="1" fill-rule="evenodd"/></svg>